<svg width="1027" height="734" viewBox="0 0 1027 734" fill="none" xmlns="http://www.w3.org/2000/svg">
<rect x="234" width="12" height="202" fill="black"/>
<rect x="253" width="6" height="202" fill="black"/>
<rect x="271" width="6" height="202" fill="black"/>
<rect x="302" width="7" height="202" fill="black"/>
<rect x="333" width="6" height="202" fill="black"/>
<rect x="395" width="6" height="202" fill="black"/>
<rect x="407" width="6" height="202" fill="black"/>
<rect x="470" width="6" height="202" fill="black"/>
<rect x="488" width="6" height="202" fill="black"/>
<rect x="507" width="6" height="202" fill="black"/>
<rect x="525" width="6" height="202" fill="black"/>
<rect x="643" width="6" height="275" fill="black"/>
<rect x="668" width="6" height="275" fill="black"/>
<rect x="352" width="12" height="202" fill="black"/>
<rect x="370" width="13" height="202" fill="black"/>
<rect x="439" width="24" height="202" fill="black"/>
<path fill-rule="evenodd" clip-rule="evenodd" d="M631 0H625V250.085C627.505 254.813 629.486 259.881 631 265.28V0Z" fill="black"/>
<path fill-rule="evenodd" clip-rule="evenodd" d="M618 0H593V219.778C597.457 222.436 601.533 225.433 605.217 228.814C610.421 233.589 614.641 238.936 618 244.834V0Z" fill="black"/>
<path fill-rule="evenodd" clip-rule="evenodd" d="M581 0H575V211.466C577.054 212.195 579.054 212.964 581 213.778V0Z" fill="black"/>
<path fill-rule="evenodd" clip-rule="evenodd" d="M569 0H544V203.879C552.981 205.341 561.325 207.174 569 209.499V0Z" fill="black"/>
<path d="M784.969 452.75C784.969 386.906 784.969 356.281 734.948 356.281C734.948 317.49 720.146 307.792 656.344 307.792H613.469" stroke="black" stroke-width="25" stroke-linecap="round"/>
<path fill-rule="evenodd" clip-rule="evenodd" d="M792 0H779V326.047C782.723 327.146 786.213 328.572 789.459 330.371C790.333 330.856 791.18 331.362 792 331.89V0Z" fill="black"/>
<path fill-rule="evenodd" clip-rule="evenodd" d="M773 0H767V323.664C769.054 323.904 771.054 324.21 773 324.589V0Z" fill="black"/>
<path fill-rule="evenodd" clip-rule="evenodd" d="M761 0H742V283.997C743.279 284.648 744.517 285.343 745.712 286.088C752.88 290.553 757.75 296.237 761 302.811V0Z" fill="black"/>
<path fill-rule="evenodd" clip-rule="evenodd" d="M711 0H724V277.999C721.699 277.522 719.325 277.11 716.882 276.753C714.988 276.476 713.028 276.228 711 276.008V0Z" fill="black"/>
<path fill-rule="evenodd" clip-rule="evenodd" d="M680 0H705V275.45C697.509 274.86 689.192 274.577 680 274.514V0Z" fill="black"/>
<path d="M772.469 451.75C772.469 458.653 778.065 464.25 784.969 464.25C791.872 464.25 797.469 458.653 797.469 451.75H772.469ZM734.948 355.281H722.448V367.781H734.948V355.281ZM613.469 294.292C606.565 294.292 600.969 299.888 600.969 306.792C600.969 313.695 606.565 319.292 613.469 319.292V294.292ZM125 261.604C118.096 261.604 112.5 267.201 112.5 274.104C112.5 281.008 118.096 286.604 125 286.604V261.604ZM400.625 286.604C407.529 286.604 413.125 281.008 413.125 274.104C413.125 267.201 407.529 261.604 400.625 261.604V286.604ZM207.688 302.948C200.784 302.948 195.188 308.544 195.188 315.448C195.188 322.351 200.784 327.948 207.688 327.948V302.948ZM318.958 327.948C325.862 327.948 331.458 322.351 331.458 315.448C331.458 308.544 325.862 302.948 318.958 302.948V327.948ZM217.385 342.25C210.482 342.25 204.885 347.846 204.885 354.75C204.885 361.654 210.482 367.25 217.385 367.25V342.25ZM466.979 367.25C473.883 367.25 479.479 361.654 479.479 354.75C479.479 347.846 473.883 342.25 466.979 342.25V367.25ZM201.562 221.281C194.659 221.281 189.062 226.878 189.062 233.781C189.062 240.685 194.659 246.281 201.562 246.281V221.281ZM613.469 452.75V465.25C620.372 465.25 625.969 459.653 625.969 452.75H613.469ZM247.5 452.75H235C235 459.653 240.596 465.25 247.5 465.25V452.75ZM260 388.948C260 382.044 254.404 376.448 247.5 376.448C240.596 376.448 235 382.044 235 388.948H260ZM171.958 328.458C178.862 328.458 184.458 322.862 184.458 315.958C184.458 309.055 178.862 303.458 171.958 303.458V328.458ZM140.312 303.458C133.409 303.458 127.812 309.055 127.812 315.958C127.812 322.862 133.409 328.458 140.312 328.458V303.458ZM797.469 451.75C797.469 435.418 797.474 420.712 796.661 408.095C795.853 395.556 794.191 384.011 790.348 374.246C786.351 364.091 779.924 355.705 769.927 350.163C760.311 344.831 748.548 342.781 734.948 342.781V367.781C746.359 367.781 753.353 369.559 757.805 372.027C761.877 374.285 764.829 377.671 767.085 383.402C769.494 389.524 770.958 397.981 771.713 409.703C772.463 421.346 772.469 435.16 772.469 451.75H797.469ZM747.448 355.281C747.448 334.763 743.592 316.726 726.181 305.88C718.278 300.957 708.534 298.18 697.351 296.545C686.104 294.899 672.513 294.292 656.344 294.292V319.292C672.075 319.292 684.261 319.896 693.733 321.281C703.27 322.676 709.189 324.749 712.962 327.099C718.903 330.8 722.448 337.007 722.448 355.281H747.448ZM656.344 294.292H613.469V319.292H656.344V294.292ZM125 286.604H400.625V261.604H125V286.604ZM207.688 327.948H318.958V302.948H207.688V327.948ZM217.385 367.25H466.979V342.25H217.385V367.25ZM201.562 246.281C280.2 246.281 345.558 244.875 398.67 244.439C452.097 243.999 492.992 244.546 523.917 248.296C555.125 252.079 573.814 258.899 584.872 269.046C595.318 278.633 600.969 293.142 600.969 318H625.969C625.969 289.52 619.433 266.832 601.775 250.627C584.727 234.982 559.394 227.414 526.926 223.478C494.177 219.507 451.747 219.001 398.465 219.439C344.868 219.88 280.133 221.281 201.562 221.281V246.281ZM600.969 318V452.75H625.969V318H600.969ZM613.469 440.25H247.5V465.25H613.469V440.25ZM260 452.75V388.948H235V452.75H260ZM171.958 303.458H140.312V328.458H171.958V303.458Z" fill="black"/>
<circle cx="162.26" cy="233.781" r="13.7812" fill="black"/>
<circle cx="698.708" cy="467.042" r="46.9583" fill="black"/>
<path fill-rule="evenodd" clip-rule="evenodd" d="M323.94 476.229C328.212 497.765 347.21 514 370 514C392.79 514 411.788 497.765 416.06 476.229H323.94Z" fill="black"/>
<path d="M239.562 545.812H278.125C305.5 545.812 321.562 561.375 321.562 590.25C321.562 619.125 305.438 636 278.125 636H239.562V545.812ZM266.062 566.875V614.938H274.375C287.625 614.938 294.562 606.875 294.562 590.25C294.562 575.062 287.062 566.875 274.375 566.875H266.062ZM364.562 582.875C358.75 582.875 354.312 587.125 353.812 593.062H375.312C374.875 586.875 370.562 582.875 364.562 582.875ZM376.062 613.625H398.875C396.75 628.5 383.75 637.75 364.812 637.75C342.188 637.75 328.75 624.312 328.75 601.875C328.75 579.312 342.312 565.25 364 565.25C385.375 565.25 399.188 578.875 399.188 600V606.938H353.438V608.562C353.438 615.312 358.312 620.188 365.188 620.188C370.375 620.188 374.562 617.75 376.062 613.625ZM407.312 636V545.812H432.938V636H407.312ZM442.875 636V567H468.5V636H442.875ZM455.688 563.188C448.438 563.188 442.938 557.938 442.938 551.062C442.938 544.188 448.438 538.938 455.688 538.938C462.938 538.938 468.438 544.188 468.438 551.062C468.438 557.938 462.938 563.188 455.688 563.188ZM547.25 567L525.125 636H495.062L472.625 567H500.25L510.25 615.312H510.75L520.438 567H547.25ZM583.562 582.875C577.75 582.875 573.312 587.125 572.812 593.062H594.312C593.875 586.875 589.562 582.875 583.562 582.875ZM595.062 613.625H617.875C615.75 628.5 602.75 637.75 583.812 637.75C561.188 637.75 547.75 624.312 547.75 601.875C547.75 579.312 561.312 565.25 583 565.25C604.375 565.25 618.188 578.875 618.188 600V606.938H572.438V608.562C572.438 615.312 577.312 620.188 584.188 620.188C589.375 620.188 593.562 617.75 595.062 613.625ZM626 636V567H651V580.562H651.5C654.125 570.75 659.438 566 667.625 566C669.938 566 671.938 566.375 673.625 567V588.5C671.438 587.562 668.812 587.062 666.188 587.062C656.562 587.062 651.625 592 651.625 601.625V636H626ZM686.75 636.875C679.562 636.875 673.75 631.062 673.75 623.875C673.75 616.688 679.562 610.875 686.75 610.875C693.938 610.875 699.75 616.688 699.75 623.875C699.75 631.062 693.938 636.875 686.75 636.875ZM710.875 636V567H736.5V636H710.875ZM723.688 563.188C716.438 563.188 710.938 557.938 710.938 551.062C710.938 544.188 716.438 538.938 723.688 538.938C730.938 538.938 736.438 544.188 736.438 551.062C736.438 557.938 730.938 563.188 723.688 563.188ZM752.312 551.875H777.938V567H790.062V585.562H777.938V611.062C777.938 615.375 780.438 617.625 785.688 617.625C787.625 617.625 788.562 617.562 790.062 617.312V635.062C787.625 635.562 784.375 636 779.5 636C760 636 752.312 630.375 752.312 616.75V585.562H743.188V567H752.312V551.875Z" fill="black"/>
</svg>
